<svg xmlns="http://www.w3.org/2000/svg" xmlns:xlink="http://www.w3.org/1999/xlink" viewBox="0,0,256,256" width="32px" height="32px" fill-rule="nonzero"><g transform="translate(56,56) scale(0.5625,0.5625)"><g fill="#ffffff" fill-rule="nonzero" stroke="none" stroke-width="1" stroke-linecap="butt" stroke-linejoin="miter" stroke-miterlimit="10" stroke-dasharray="" stroke-dashoffset="0" font-family="none" font-weight="none" font-size="none" text-anchor="none" style="mix-blend-mode: normal"><path d="M-99.55556,355.55556v-455.11111h455.11111v455.11111z" id="bgRectangle"></path></g><g fill="#ffffff" fill-rule="nonzero" stroke="none" stroke-width="1" stroke-linecap="butt" stroke-linejoin="miter" stroke-miterlimit="10" stroke-dasharray="" stroke-dashoffset="0" font-family="none" font-weight="none" font-size="none" text-anchor="none" style="mix-blend-mode: normal"><path d="M108.8,256c-60.08858,0 -108.8,-48.71142 -108.8,-108.8v-38.4c0,-60.08858 48.71142,-108.8 108.8,-108.8h38.4c60.08858,0 108.8,48.71142 108.8,108.8v38.4c0,60.08858 -48.71142,108.8 -108.8,108.8z" id="shape"></path></g><g fill="#ffffff" fill-rule="nonzero" stroke="#ffffff" stroke-width="32" stroke-linecap="butt" stroke-linejoin="round" stroke-miterlimit="10" stroke-dasharray="" stroke-dashoffset="0" font-family="none" font-weight="none" font-size="none" text-anchor="none" style="mix-blend-mode: normal"><path d="M132,16v20h20v8h-20v20h-8v-20h-20v-8h20v-20zM72,48v24h24v8h-24v24h-8v-24h-24v-8h24v-24zM192,48v24h24v8h-24v24h-8v-24h-24v-8h24v-24zM136,88v32h32v16h-32v32h-16v-32h-32v-16h32v-32zM44,104v20h20v8h-20v20h-8v-20h-20v-8h20v-20zM220,104v20h20v8h-20v20h-8v-20h-20v-8h20v-20zM72,152v24h24v8h-24v24h-8v-24h-24v-8h24v-24zM192,152v24h24v8h-24v24h-8v-24h-24v-8h24v-24zM132,192v20h20v8h-20v20h-8v-20h-20v-8h20v-20z" id="strokeMainSVG"></path></g><g fill="#000000" fill-rule="nonzero" stroke="none" stroke-width="1" stroke-linecap="butt" stroke-linejoin="miter" stroke-miterlimit="10" stroke-dasharray="" stroke-dashoffset="0" font-family="none" font-weight="none" font-size="none" text-anchor="none" style="mix-blend-mode: normal"><g transform="scale(8,8)"><path d="M15.5,2v2.5h-2.5v1h2.5v2.5h1v-2.5h2.5v-1h-2.5v-2.5zM8,6v3h-3v1h3v3h1v-3h3v-1h-3v-3zM23,6v3h-3v1h3v3h1v-3h3v-1h-3v-3zM15,11v4h-4v2h4v4h2v-4h4v-2h-4v-4zM4.5,13v2.5h-2.5v1h2.5v2.5h1v-2.5h2.5v-1h-2.5v-2.5zM26.5,13v2.5h-2.5v1h2.5v2.5h1v-2.5h2.5v-1h-2.5v-2.5zM8,19v3h-3v1h3v3h1v-3h3v-1h-3v-3zM23,19v3h-3v1h3v3h1v-3h3v-1h-3v-3zM15.5,24v2.5h-2.5v1h2.5v2.5h1v-2.5h2.5v-1h-2.5v-2.5z"></path></g></g></g></svg>